<?xml version="1.0" encoding="UTF-8"?>
<!-- Generated by Pixelmator Pro 3.4.3 -->
<svg width="512" height="512" viewBox="0 0 512 512" xmlns="http://www.w3.org/2000/svg">
    <path id="path1" fill="#1e8a56" stroke="none" d="M 256 42.666656 C 313.2883 42.775452 368.146362 65.825043 408.319977 106.666656 L 320 106.666656 L 320 149.333344 L 429.717316 149.333344 C 451.586914 149.309814 469.309814 131.586884 469.333344 109.717346 L 469.333344 0 L 426.666656 0 L 426.666656 65.279999 C 351.432373 -2.011597 243.680176 -18.813538 151.530014 22.377563 C 59.379871 63.568665 0.035927 155.062592 0 256 L 42.666668 256 C 42.795994 138.23288 138.232864 42.79599 256 42.666656 Z"/>
    <path id="path2" fill="#1e8a56" stroke="none" d="M 469.333344 256 C 469.320709 342.660156 416.885742 420.70166 336.658356 453.466644 C 256.430939 486.231598 164.354721 467.208649 103.68 405.333344 L 192 405.333344 L 192 362.666687 L 82.282669 362.666687 C 60.413101 362.690186 42.690182 380.413086 42.666668 402.282684 L 42.666668 512 L 85.333336 512 L 85.333336 446.720001 C 160.567627 514.011597 268.319824 530.813538 360.469971 489.622437 C 452.620117 448.431305 511.964081 356.937378 512 256 Z"/>
</svg>
